<svg width="356" height="156" viewBox="0 0 356 156" fill="none" xmlns="http://www.w3.org/2000/svg">
<rect x="16" y="16" width="24" height="24" fill="#4285F4"/>
<rect x="16" y="48" width="24" height="24" fill="#E41A86"/>
<rect x="16" y="72" width="24" height="24" fill="#F1C232"/>
<rect x="16" y="96" width="24" height="24" fill="#0097A7"/>
<path d="M330.378 120H329.878C327.011 120 325.311 119.8 324.778 119.4C324.311 119 324.078 117.667 324.078 115.4V48H324.578C327.445 48 329.111 48.2 329.578 48.6C330.111 49 330.378 50.3333 330.378 52.6V120Z" fill="#F1C232"/>
<path d="M311.621 120C308.621 120 306.821 119.8 306.221 119.4C305.688 119 305.154 117.667 304.621 115.4L300.221 95.5H285.021L279.621 120C278.554 120 277.621 120 276.821 120C276.021 120 275.354 119.933 274.821 119.8C274.288 119.667 273.954 119.5 273.821 119.3C273.688 119.1 273.621 118.767 273.621 118.3C273.621 117.833 278.888 94.4 289.421 48H295.821L312.121 120H311.621ZM299.521 90L298.621 87.5L293.621 60.8H291.721L286.821 87.5L285.921 90H299.521Z" fill="#E41A86"/>
<path d="M71.7328 115.4V93.3C71.7328 83.1 71.4328 76.8333 70.8328 74.5C70.2328 72.1 68.4328 70.9 65.4328 70.9L55.6328 74.4L56.0328 76.9V120C53.0995 120 51.3661 119.8 50.8328 119.4C50.3661 119 50.1328 117.667 50.1328 115.4V66.3C53.0661 66.3 54.7661 66.4333 55.2328 66.7C55.7661 66.9 56.0328 67.7667 56.0328 69.3L65.0328 65.6C71.0328 65.6 74.6328 67.1333 75.8328 70.2C77.0328 73.2667 77.6328 81 77.6328 93.4V120C74.6995 120 72.9661 119.8 72.4328 119.4C71.9661 119 71.7328 117.667 71.7328 115.4Z" fill="#4285F4"/>
<path d="M88.4977 71.7V66.3H93.7977L93.3977 63.8V62.2C93.3977 59.2667 93.3977 57.2333 93.3977 56.1C93.4643 54.9 93.6643 53.5333 93.9977 52C94.3977 50.4667 94.831 49.5 95.2977 49.1C95.831 48.7 96.7643 48.2333 98.0977 47.7C99.431 47.1667 100.864 46.9 102.398 46.9C103.998 46.8333 106.231 46.8 109.098 46.8H119.198V51.8H109.098C104.231 51.8 101.398 52.2333 100.598 53.1C99.7977 53.9667 99.3977 57 99.3977 62.2V63.8L98.9977 66.3H114.198C116.598 66.3 118.031 66.5333 118.498 67C118.964 67.4 119.198 68.7 119.198 70.9V120C116.264 120 114.531 119.8 113.998 119.4C113.531 119 113.298 117.667 113.298 115.4V71.7H98.8977L99.2977 74.2V134.3C99.231 137.167 98.931 138.833 98.3977 139.3C97.931 139.767 96.231 140 93.2977 140L93.3977 74.2L93.7977 71.7H88.4977Z" fill="#4285F4"/>
<path d="M155.811 115.4V93.3C155.811 83.1 155.511 76.8333 154.911 74.5C154.311 72.1 152.511 70.9 149.511 70.9L139.711 74.4L140.111 76.9V120C137.178 120 135.444 119.8 134.911 119.4C134.444 119 134.211 117.667 134.211 115.4V66.3C137.144 66.3 138.844 66.4333 139.311 66.7C139.844 66.9 140.111 67.7667 140.111 69.3L149.111 65.6C155.111 65.6 158.711 67.1333 159.911 70.2C161.111 73.2667 161.711 81 161.711 93.4V120C158.778 120 157.044 119.8 156.511 119.4C156.044 119 155.811 117.667 155.811 115.4Z" fill="#4285F4"/>
<path d="M182.576 55.8C181.709 56.6667 180.642 57.1 179.376 57.1C178.109 57.1 177.009 56.6667 176.076 55.8C175.209 54.8667 174.776 53.7667 174.776 52.5C174.776 51.1667 175.209 50.1 176.076 49.3C177.009 48.4333 178.109 48 179.376 48C180.642 48 181.709 48.4333 182.576 49.3C183.509 50.1667 183.976 51.2333 183.976 52.5C183.976 53.7667 183.509 54.8667 182.576 55.8ZM176.476 115.8V66.3C179.409 66.3 181.109 66.5 181.576 66.9C182.109 67.2333 182.376 68.5667 182.376 70.9V120.4C179.442 120.4 177.709 120.2 177.176 119.8C176.709 119.4 176.476 118.067 176.476 115.8Z" fill="#4285F4"/>
<path d="M197.188 97.2V74.2L197.588 71.7H193.288V66.3H197.588L197.188 62.8V58.4C200.122 58.4 201.822 58.6 202.288 59C202.822 59.4 203.088 60.7333 203.088 63L202.688 66.3H211.888C211.888 68.7667 211.655 70.3 211.188 70.9C210.788 71.4333 209.422 71.7 207.088 71.7H202.688L203.088 74.2V97.2C203.088 104.8 203.288 109.733 203.688 112C204.088 114.267 205.222 115.4 207.088 115.4H213.888V120L206.988 120.5C202.388 120.5 199.588 119.1 198.588 116.3C197.655 113.433 197.188 107.067 197.188 97.2Z" fill="#4285F4"/>
<path d="M218.94 140V135.3C222.073 135.3 224.507 134.2 226.24 132C228.04 129.867 228.94 127.167 228.94 123.9C228.94 122.567 225.407 103.367 218.34 66.3C221.207 66.3 222.907 66.5 223.44 66.9C224.04 67.2333 224.573 68.5667 225.04 70.9L232.04 113H233.34L240.64 66.3C243.84 66.3 245.54 66.6 245.74 67.2C245.873 67.4 245.94 67.7667 245.94 68.3C245.94 71.7 242.707 88.9333 236.24 120C236.107 120.6 235.873 121.833 235.54 123.7C235.207 125.567 234.94 126.833 234.74 127.5C234.607 128.167 234.307 129.233 233.84 130.7C233.373 132.233 232.907 133.3 232.44 133.9C231.973 134.5 231.307 135.3 230.44 136.3C229.64 137.3 228.74 138 227.74 138.4C224.94 139.467 222.007 140 218.94 140Z" fill="#4285F4"/>
</svg>
