<svg width="32" height="32" viewBox="0 0 32 32" fill="none" xmlns="http://www.w3.org/2000/svg">
<path d="M19.697 30.6401C20.108 30.2151 20.362 29.6371 20.362 29.0001V28.9991V14.3591H22.883C22.904 14.3591 22.923 14.3581 22.942 14.3541C23.823 14.2691 24.451 13.0551 24.451 12.2271C24.451 11.8141 24.294 11.4211 24.02 11.1331C24.009 11.1201 22.882 9.82611 21.816 8.71911C20.885 7.72711 19.597 6.97211 18.192 6.58011C18.944 5.95111 19.399 5.01111 19.399 4.00211C19.399 2.14911 17.875 0.641113 16.001 0.641113C14.128 0.641113 12.605 2.14911 12.605 4.00211C12.605 5.01111 13.059 5.95111 13.811 6.58011C12.424 6.96711 11.162 7.70711 10.19 8.71511C9.119 9.82611 7.993 11.1201 7.992 11.1221C7.708 11.4221 7.552 11.8141 7.552 12.2271C7.552 13.0551 8.179 14.2691 9.06 14.3541C9.079 14.3571 9.099 14.3591 9.119 14.3591H11.642V15.8431L8.114 19.1621C7.406 19.9891 7.505 21.2381 8.321 21.9351L12.581 25.8861C13.336 26.5321 14.831 26.5071 15.639 25.9021V28.9991L15.642 29.0001C15.642 29.6371 15.895 30.2151 16.307 30.6401H1V31.3611H31V30.6401H19.697ZM9.159 13.6391C8.747 13.6391 8.271 12.7841 8.271 12.2261C8.271 11.9981 8.357 11.7811 8.524 11.6041C8.535 11.5911 9.65 10.3101 10.708 9.21311C11.765 8.11611 13.205 7.36611 14.766 7.10011C14.828 7.09611 14.889 7.07711 14.942 7.04111C15.044 6.97511 15.106 6.86011 15.106 6.73811C15.106 6.63211 15.06 6.53211 14.979 6.46411C14.942 6.43211 14.899 6.40911 14.854 6.39511C13.923 5.96211 13.324 5.02711 13.324 3.99911C13.324 2.54311 14.524 1.35811 16 1.35811C17.477 1.35811 18.678 2.54311 18.678 3.99911C18.678 5.02911 18.076 5.96611 17.141 6.39711C17.098 6.41211 17.058 6.43411 17.023 6.46411C16.942 6.53211 16.896 6.63411 16.896 6.74011C16.896 6.86211 16.958 6.97511 17.06 7.04211C17.116 7.07811 17.178 7.09711 17.242 7.10011C18.812 7.36911 20.287 8.13611 21.296 9.21211C22.353 10.3091 23.467 11.5891 23.488 11.6141C23.645 11.7801 23.731 11.9961 23.731 12.2241C23.731 12.7821 23.255 13.6371 22.844 13.6371H16.362V10.3601C16.651 10.4641 16.965 10.6601 17.254 10.8441C17.683 11.1181 18.053 11.3551 18.416 11.3571H19.937C20.136 11.3571 20.297 11.1961 20.297 10.9971C20.297 10.7981 20.135 10.6371 19.937 10.6371H18.417C18.264 10.6361 17.918 10.4151 17.641 10.2381C17.146 9.92211 16.586 9.56411 15.993 9.56411C15.416 9.56411 14.856 9.92211 14.362 10.2381C14.084 10.4151 13.738 10.6361 13.588 10.6371H12.067C11.868 10.6371 11.707 10.7981 11.707 10.9971C11.707 11.1961 11.868 11.3571 12.067 11.3571H13.59C13.952 11.3551 14.322 11.1181 14.75 10.8441C15.037 10.6611 15.349 10.4661 15.642 10.3621V13.6371H9.159V13.6391ZM15.639 22.8521L13.383 20.6141C13.827 20.1911 14.701 19.3591 15.08 18.9961L15.639 19.2371V22.8521V22.8521ZM19.642 28.9991C19.642 29.9041 18.907 30.6401 18.002 30.6401C17.097 30.6401 16.362 29.9051 16.362 29.0001L16.359 28.9991V24.5251C16.366 24.4291 16.366 24.3341 16.359 24.2381V18.9991C16.359 18.8551 16.274 18.7261 16.141 18.6681L15.144 18.2391C15.009 18.1811 14.851 18.2121 14.747 18.3161C14.642 18.4221 12.618 20.3461 12.618 20.3461C12.548 20.4131 12.507 20.5051 12.506 20.6031C12.505 20.7011 12.543 20.7941 12.612 20.8631L15.203 23.4321C15.466 23.6581 15.613 23.9691 15.638 24.2891V24.4831C15.618 24.7391 15.52 24.9911 15.342 25.2001C14.905 25.7091 13.577 25.7891 13.059 25.3481L8.799 21.3971C8.274 20.9471 8.211 20.1541 8.633 19.6571L12.248 16.2601C12.32 16.1921 12.361 16.0971 12.361 15.9981V14.3581H19.641L19.642 28.9991Z" fill="white"/>
</svg>
