<svg width="1920" height="1080" viewBox="0 0 1920 1080" fill="none" xmlns="http://www.w3.org/2000/svg">
<g clip-path="url(#clip0_317_56)">
<path d="M1920 0H0V1080H1920V0Z" fill="url(#paint0_radial_317_56)"/>
<g opacity="0.15" filter="url(#filter0_f_317_56)">
<path opacity="0.15" d="M1304.55 762.024C1114.26 744.284 967.636 668.364 977.05 592.451C986.464 516.537 1148.36 469.378 1338.65 487.118C1528.94 504.857 1675.56 580.778 1666.15 656.691C1656.74 732.605 1494.84 779.764 1304.55 762.024Z" fill="#6366F1"/>
</g>
<g opacity="0.15" filter="url(#filter1_f_317_56)">
<path opacity="0.15" d="M1463.78 592.221C1231.66 579.211 1051.57 460.392 1061.52 326.832C1071.48 193.272 1267.72 95.5472 1499.84 108.557C1731.96 121.567 1912.05 240.386 1902.1 373.946C1892.14 507.506 1695.9 605.231 1463.78 592.221Z" fill="white"/>
</g>
<path opacity="0.8" fill-rule="evenodd" clip-rule="evenodd" d="M2265 528.5C2265 528.224 2264.78 528 2264.5 528H1360.5C1320.46 528 1288 560.459 1288 600.5V1140.5C1288 1140.78 1288.22 1141 1288.5 1141C1288.78 1141 1289 1140.78 1289 1140.5V600.5C1289 561.012 1321.01 529 1360.5 529H2264.5C2264.78 529 2265 528.776 2265 528.5Z" fill="url(#paint1_linear_317_56)"/>
<path opacity="0.65" fill-rule="evenodd" clip-rule="evenodd" d="M2268 470.5C2268 470.224 2267.78 470 2267.5 470H1321.5C1269.31 470 1227 512.309 1227 564.5V1129.5C1227 1129.78 1227.22 1130 1227.5 1130C1227.78 1130 1228 1129.78 1228 1129.5V564.5C1228 512.861 1269.86 471 1321.5 471H2267.5C2267.78 471 2268 470.776 2268 470.5Z" fill="url(#paint2_linear_317_56)"/>
<path opacity="0.5" fill-rule="evenodd" clip-rule="evenodd" d="M2281 403.5C2281 403.224 2280.78 403 2280.5 403H1272.5C1210.37 403 1160 453.368 1160 515.5V1119.5C1160 1119.78 1160.22 1120 1160.5 1120C1160.78 1120 1161 1119.78 1161 1119.5V515.5C1161 453.92 1210.92 404 1272.5 404H2280.5C2280.78 404 2281 403.776 2281 403.5Z" fill="url(#paint3_linear_317_56)"/>
<path opacity="0.3" fill-rule="evenodd" clip-rule="evenodd" d="M2285 329.5C2285 329.224 2284.78 329 2284.5 329H1212.5C1141.53 329 1084 386.531 1084 457.5V1109.5C1084 1109.78 1084.22 1110 1084.5 1110C1084.78 1110 1085 1109.78 1085 1109.5V457.5C1085 387.084 1142.08 330 1212.5 330H2284.5C2284.78 330 2285 329.776 2285 329.5Z" fill="url(#paint4_linear_317_56)"/>
<path opacity="0.2" fill-rule="evenodd" clip-rule="evenodd" d="M2285 239.5C2285 239.224 2284.78 239 2284.5 239H1120.5C1047.32 239 988 298.322 988 371.5V1099.5C988 1099.78 988.22 1100 988.5 1100C988.78 1100 989 1099.78 989 1099.5V371.5C989 298.875 1047.87 240 1120.5 240H2284.5C2284.78 240 2285 239.776 2285 239.5Z" fill="url(#paint5_linear_317_56)"/>
<path d="M-0.962996 1080H-1.6051H-0.962996ZM0.16055 1080L524.733 1066.52C524.893 1071.01 524.893 1075.51 524.893 1080H7.14064e-05H0.16055ZM-0.802517 1080H-0.962996H-1.6051H-0.802517ZM-0.160408 1080H7.14064e-05H0.16055H0.321126H0.481606L520.399 1012.29C521.522 1021.27 522.485 1030.42 523.288 1039.57L0.321126 1080H0.16055H-0.160408H-0.642039H-0.160408ZM510.446 957.895C512.533 966.88 514.459 975.865 516.225 984.851L0.481606 1079.84L510.446 957.895ZM-0.160408 1080H0.16055H0.321126H-0.160408ZM494.716 904.784C497.766 913.449 500.655 922.274 503.223 931.099L0.321126 1079.84L494.716 904.784ZM473.688 853.76C477.701 862.104 481.393 870.447 484.924 878.951L0.481606 1079.68L473.688 853.76ZM7.14064e-05 1080H0.16055H7.14064e-05ZM447.363 805.464C452.179 813.326 456.673 821.188 461.168 829.211L0.642181 1079.84L447.363 805.464ZM7.14064e-05 1080L0.16055 1079.84L7.14064e-05 1080ZM0.16055 1080L416.223 760.376C421.841 767.596 427.138 774.977 432.274 782.519L0.321126 1079.84L0.16055 1080ZM7.14064e-05 1080L380.748 718.818C387.008 725.397 393.108 732.136 399.047 739.196L7.14064e-05 1080ZM7.14064e-05 1079.84L341.1 681.112C348.003 687.049 354.744 693.146 361.486 699.404L7.14064e-05 1079.84ZM7.14064e-05 1079.84V1079.68L297.6 647.898C305.144 653.032 312.528 658.488 319.751 663.943L7.14064e-05 1079.84ZM0.16055 1079.52L250.889 619.016C258.915 623.348 266.941 628.002 274.646 632.815L0.16055 1079.52ZM200.968 595.269C209.476 598.799 217.823 602.489 226.17 606.501L7.14064e-05 1079.52L200.968 595.269ZM148.961 576.817C157.789 579.384 166.618 582.272 175.285 585.321L0.16055 1079.36L148.961 576.817ZM7.14064e-05 1080V1079.84V1080ZM95.1871 563.981C104.337 565.585 113.326 567.511 122.154 569.757L0.16055 1079.52L95.1871 563.981ZM7.14064e-05 1080V1079.84V1080ZM7.14064e-05 1080V1079.84V1079.68L40.7716 556.921C49.9211 557.562 58.9101 558.525 68.0596 559.809L0.321126 1079.52V1079.68V1079.84L7.14064e-05 1080ZM7.14064e-05 1080V555.316C4.49457 555.316 8.98911 555.316 13.4836 555.477L7.14064e-05 1079.84V1080ZM7.14064e-05 555.316V1080H-0.160408H-0.642039H-0.802517H-0.962996H-1.6051V555.316H7.14064e-05ZM0.16055 1080L524.733 1066.52L990.073 1054.49C990.234 1062.99 990.395 1071.5 990.395 1080H7.14064e-05H0.16055ZM-0.802517 1080H-0.962996H-1.6051H-0.802517ZM-0.160408 1080H7.14064e-05H0.16055H0.321126H0.481606L520.559 1012.13L982.048 951.958C984.295 968.966 986.061 986.135 987.345 1003.3L523.288 1039.24L0.321126 1080H0.16055H-0.160408H-0.642039H-0.160408ZM0.481606 1079.84L510.446 957.895L963.107 849.588C967.119 866.436 970.811 883.444 973.861 900.613L516.065 984.851L0.481606 1079.84ZM-0.160408 1080H7.14064e-05H-0.160408ZM494.716 904.784L933.571 749.465C939.35 765.831 944.807 782.358 949.623 799.045L503.223 931.099L0.321126 1079.84L494.716 904.784ZM7.14064e-05 1080H0.16055H7.14064e-05ZM473.688 853.76L893.602 653.193C901.147 668.757 908.209 684.642 914.791 700.848L484.764 879.112L0.321126 1079.84L473.688 853.76ZM447.363 805.464L844.002 562.055C852.991 576.817 861.659 591.739 870.006 606.982L0.481606 1079.84L447.363 805.464ZM7.14064e-05 1080L0.16055 1079.84L7.14064e-05 1080ZM0.16055 1080L416.223 760.376L785.413 476.854C795.847 490.493 805.96 504.452 815.912 518.572L432.435 782.519L0.481606 1079.84L0.16055 1080ZM0.16055 1080L380.748 718.818L718.317 398.392C730.195 410.908 741.592 423.583 752.828 436.741L399.047 739.036L0.16055 1080ZM7.14064e-05 1079.84L341.1 681.112L643.516 327.472C656.678 338.703 669.359 350.096 681.879 361.969L361.326 699.404L7.14064e-05 1079.84ZM7.14064e-05 1079.84V1079.68L297.6 647.898L561.652 264.574C575.938 274.361 589.742 284.47 603.386 295.06L319.751 664.104L7.14064e-05 1079.84ZM0.16055 1079.52L473.206 210.34C488.456 218.684 503.384 227.348 518.151 236.334L274.485 632.815L0.16055 1079.52ZM200.968 595.269L379.303 165.413C395.355 172.152 411.247 179.212 426.977 186.593L226.33 606.501L0.16055 1079.52L200.968 595.269ZM148.961 576.817L280.906 130.595C297.6 135.569 314.294 140.864 330.506 146.64L175.125 585.321L7.14064e-05 1079.36L148.961 576.817ZM7.14064e-05 1080V1079.84V1080ZM0.16055 1079.52L95.1871 563.981L179.459 106.366C196.634 109.575 213.649 113.105 230.504 117.117L122.154 569.596L0.16055 1079.52ZM7.14064e-05 1080V1079.84V1080ZM7.14064e-05 1080V1079.84V1079.68L40.7716 556.921L76.7275 92.8882C93.9029 94.1718 111.078 96.0972 128.093 98.1831L67.8991 559.648L7.14064e-05 1079.52V1079.68V1079.84V1080ZM7.14064e-05 1080V90C8.50751 90 17.015 90.1605 25.5224 90.3209L13.4836 555.477L7.14064e-05 1079.84V1080ZM7.14064e-05 90V1080H-0.160408H-0.642039H-0.802517H-0.962996H-1.6051V90H7.14064e-05Z" fill="url(#paint6_radial_317_56)"/>
</g>
<defs>
<filter id="filter0_f_317_56" x="626.621" y="133.383" width="1389.96" height="982.375" filterUnits="userSpaceOnUse" color-interpolation-filters="sRGB">
<feFlood flood-opacity="0" result="BackgroundImageFix"/>
<feBlend mode="normal" in="SourceGraphic" in2="BackgroundImageFix" result="shape"/>
<feGaussianBlur stdDeviation="175" result="effect1_foregroundBlur_317_56"/>
</filter>
<filter id="filter1_f_317_56" x="611.13" y="-342.604" width="1741.36" height="1385.99" filterUnits="userSpaceOnUse" color-interpolation-filters="sRGB">
<feFlood flood-opacity="0" result="BackgroundImageFix"/>
<feBlend mode="normal" in="SourceGraphic" in2="BackgroundImageFix" result="shape"/>
<feGaussianBlur stdDeviation="225" result="effect1_foregroundBlur_317_56"/>
</filter>
<radialGradient id="paint0_radial_317_56" cx="0" cy="0" r="1" gradientUnits="userSpaceOnUse" gradientTransform="translate(1407.5 339.12) rotate(-48.9169) scale(2477.35 1281.77)">
<stop stop-color="#6387F1" stop-opacity="0.1"/>
<stop offset="0.524709" stop-color="#DA46EF" stop-opacity="0.05"/>
<stop offset="1" stop-color="#6387F1" stop-opacity="0.1"/>
</radialGradient>
<linearGradient id="paint1_linear_317_56" x1="2265" y1="835.967" x2="1288" y2="835.967" gradientUnits="userSpaceOnUse">
<stop stop-color="#6366F1"/>
<stop offset="0.5" stop-color="#8B5CF6"/>
<stop offset="1" stop-color="#D946EF"/>
</linearGradient>
<linearGradient id="paint2_linear_317_56" x1="2268" y1="801.579" x2="1227" y2="801.579" gradientUnits="userSpaceOnUse">
<stop stop-color="#6366F1"/>
<stop offset="0.5" stop-color="#8B5CF6"/>
<stop offset="1" stop-color="#D946EF"/>
</linearGradient>
<linearGradient id="paint3_linear_317_56" x1="2281" y1="763.215" x2="1160" y2="763.215" gradientUnits="userSpaceOnUse">
<stop stop-color="#6366F1"/>
<stop offset="0.5" stop-color="#8B5CF6"/>
<stop offset="1" stop-color="#D946EF"/>
</linearGradient>
<linearGradient id="paint4_linear_317_56" x1="2285" y1="721.369" x2="1084" y2="721.369" gradientUnits="userSpaceOnUse">
<stop stop-color="#6366F1"/>
<stop offset="0.5" stop-color="#8B5CF6"/>
<stop offset="1" stop-color="#D946EF"/>
</linearGradient>
<linearGradient id="paint5_linear_317_56" x1="2285" y1="671.56" x2="988" y2="671.56" gradientUnits="userSpaceOnUse">
<stop stop-color="#6366F1"/>
<stop offset="0.5" stop-color="#8B5CF6"/>
<stop offset="1" stop-color="#D946EF"/>
</linearGradient>
<radialGradient id="paint6_radial_317_56" cx="0" cy="0" r="1" gradientUnits="userSpaceOnUse" gradientTransform="translate(-34.798 1138.81) rotate(-46.0678) scale(1058.92 1061.02)">
<stop stop-color="#6366F1" stop-opacity="0.05"/>
<stop offset="1" stop-color="white" stop-opacity="0"/>
</radialGradient>
<clipPath id="clip0_317_56">
<rect width="1920" height="1080" fill="white"/>
</clipPath>
</defs>
</svg>
