<svg width="32" height="32" viewBox="0 0 32 32" fill="none" xmlns="http://www.w3.org/2000/svg">
<path d="M3.87 30.3711C3.83 30.3711 3.791 30.3701 3.751 30.3681C3.72 30.3661 3.689 30.3631 3.657 30.3601H1V29.6401H2.334C2.026 29.2601 1.874 28.7841 1.903 28.2881C1.934 27.7621 2.167 27.2801 2.559 26.9321L11.64 17.8501V11.2701C11.64 9.78314 12.529 8.48814 13.88 7.89714C13.055 7.23914 12.538 6.19314 12.538 5.09314C12.538 3.18914 14.086 1.64014 15.99 1.64014C17.894 1.64014 19.443 3.18914 19.443 5.09314C19.443 6.06014 19.044 6.98414 18.387 7.64014H28.5C29.525 7.64014 30.36 8.47414 30.36 9.50014C30.36 10.5261 29.525 11.3601 28.5 11.3601H19.36V17.6401H23.391C24.476 17.6401 25.36 18.5241 25.36 19.6101V28.5001C25.36 28.9291 25.214 29.3251 24.968 29.6401H31V30.3611H4.081C4.011 30.3671 3.94 30.3711 3.87 30.3711ZM23.5 29.6401C24.129 29.6401 24.64 29.1291 24.64 28.5001V19.6091C24.64 18.9211 24.08 18.3601 23.392 18.3601H19C18.801 18.3601 18.64 18.1991 18.64 18.0001V11.0001C18.64 10.8011 18.801 10.6401 19 10.6401H28.5C29.129 10.6401 29.64 10.1281 29.64 9.50014C29.64 8.87214 29.129 8.36014 28.5 8.36014H17.244C17.074 8.36014 16.927 8.24114 16.892 8.07514C16.856 7.90914 16.942 7.74114 17.098 7.67214C18.07 7.23914 18.722 6.20314 18.722 5.09314C18.722 3.58614 17.496 2.36014 15.99 2.36014C14.484 2.36014 13.258 3.58614 13.258 5.09314C13.258 6.20214 13.91 7.23914 14.882 7.67214C15.025 7.73514 15.11 7.88314 15.093 8.03914C15.076 8.19414 14.962 8.32114 14.809 8.35314C13.344 8.66314 12.36 9.83514 12.36 11.2711V18.0001C12.36 18.0961 12.322 18.1881 12.255 18.2551L3.053 27.4561C2.79 27.6901 2.642 27.9961 2.622 28.3311C2.602 28.6651 2.713 28.9851 2.934 29.2331C3.134 29.4581 3.403 29.6001 3.701 29.6391H4.038C4.282 29.6071 4.51 29.5031 4.697 29.3371L13.753 20.7381C13.82 20.6751 13.909 20.6381 14.001 20.6381H22.001C22.2 20.6381 22.361 20.7991 22.361 20.9981V28.4981C22.36 29.1291 22.871 29.6401 23.5 29.6401ZM5.422 29.6401H22.031C21.786 29.3261 21.639 28.9291 21.639 28.5001V21.3601H14.143L5.422 29.6401ZM10 11.3601H3.5C2.475 11.3601 1.64 10.5261 1.64 9.50014C1.64 8.47414 2.475 7.64014 3.5 7.64014H11V8.36014H3.5C2.872 8.36014 2.36 8.87214 2.36 9.50014C2.36 10.1281 2.872 10.6401 3.5 10.6401H10V11.3601Z" fill="white"/>
</svg>
