<svg width="400" height="300" viewBox="0 0 400 300" fill="none" xmlns="http://www.w3.org/2000/svg">
<rect x="181" y="28" width="30" height="30" fill="#4285F4"/>
<rect x="181" y="66" width="30" height="30" fill="#E41A86"/>
<rect x="181" y="96" width="30" height="30" fill="#F1C232"/>
<rect x="181" y="126" width="30" height="30" fill="#0097A7"/>
<path d="M351.023 251H350.523C347.656 251 345.956 250.8 345.423 250.4C344.956 250 344.723 248.667 344.723 246.4V179H345.223C348.089 179 349.756 179.2 350.223 179.6C350.756 180 351.023 181.333 351.023 183.6V251Z" fill="#F1C232"/>
<path d="M332.266 251C329.266 251 327.466 250.8 326.866 250.4C326.332 250 325.799 248.667 325.266 246.4L320.866 226.5H305.666L300.266 251C299.199 251 298.266 251 297.466 251C296.666 251 295.999 250.933 295.466 250.8C294.932 250.667 294.599 250.5 294.466 250.3C294.332 250.1 294.266 249.767 294.266 249.3C294.266 248.833 299.532 225.4 310.066 179H316.466L332.766 251H332.266ZM320.166 221L319.266 218.5L314.266 191.8H312.366L307.466 218.5L306.566 221H320.166Z" fill="#E41A86"/>
<path d="M55.2883 251H54.7883C51.9216 251 50.2216 250.8 49.6883 250.4C49.2216 250 48.9883 248.667 48.9883 246.4V179H49.4883C52.3549 179 54.0216 179.2 54.4883 179.6C55.0216 180 55.2883 181.333 55.2883 183.6V251Z" fill="#4285F4"/>
<path d="M92.3773 246.4V224.3C92.3773 214.1 92.0773 207.833 91.4773 205.5C90.8773 203.1 89.0773 201.9 86.0773 201.9L76.2773 205.4L76.6773 207.9V251C73.744 251 72.0107 250.8 71.4773 250.4C71.0107 250 70.7773 248.667 70.7773 246.4V197.3C73.7107 197.3 75.4107 197.433 75.8773 197.7C76.4107 197.9 76.6773 198.767 76.6773 200.3L85.6773 196.6C91.6773 196.6 95.2773 198.133 96.4773 201.2C97.6773 204.267 98.2773 212 98.2773 224.4V251C95.344 251 93.6107 250.8 93.0773 250.4C92.6107 250 92.3773 248.667 92.3773 246.4Z" fill="#4285F4"/>
<path d="M109.142 202.7V197.3H114.442L114.042 194.8V193.2C114.042 190.267 114.042 188.233 114.042 187.1C114.109 185.9 114.309 184.533 114.642 183C115.042 181.467 115.476 180.5 115.942 180.1C116.476 179.7 117.409 179.233 118.742 178.7C120.076 178.167 121.509 177.9 123.042 177.9C124.642 177.833 126.876 177.8 129.742 177.8H139.842V182.8H129.742C124.876 182.8 122.042 183.233 121.242 184.1C120.442 184.967 120.042 188 120.042 193.2V194.8L119.642 197.3H134.842C137.242 197.3 138.676 197.533 139.142 198C139.609 198.4 139.842 199.7 139.842 201.9V251C136.909 251 135.176 250.8 134.642 250.4C134.176 250 133.942 248.667 133.942 246.4V202.7H119.542L119.942 205.2V265.3C119.876 268.167 119.576 269.833 119.042 270.3C118.576 270.767 116.876 271 113.942 271L114.042 205.2L114.442 202.7H109.142Z" fill="#4285F4"/>
<path d="M176.455 246.4V224.3C176.455 214.1 176.155 207.833 175.555 205.5C174.955 203.1 173.155 201.9 170.155 201.9L160.355 205.4L160.755 207.9V251C157.822 251 156.089 250.8 155.555 250.4C155.089 250 154.855 248.667 154.855 246.4V197.3C157.789 197.3 159.489 197.433 159.955 197.7C160.489 197.9 160.755 198.767 160.755 200.3L169.755 196.6C175.755 196.6 179.355 198.133 180.555 201.2C181.755 204.267 182.355 212 182.355 224.4V251C179.422 251 177.689 250.8 177.155 250.4C176.689 250 176.455 248.667 176.455 246.4Z" fill="#4285F4"/>
<path d="M203.22 186.8C202.354 187.667 201.287 188.1 200.02 188.1C198.754 188.1 197.654 187.667 196.72 186.8C195.854 185.867 195.42 184.767 195.42 183.5C195.42 182.167 195.854 181.1 196.72 180.3C197.654 179.433 198.754 179 200.02 179C201.287 179 202.354 179.433 203.22 180.3C204.154 181.167 204.62 182.233 204.62 183.5C204.62 184.767 204.154 185.867 203.22 186.8ZM197.12 246.8V197.3C200.054 197.3 201.754 197.5 202.22 197.9C202.754 198.233 203.02 199.567 203.02 201.9V251.4C200.087 251.4 198.354 251.2 197.82 250.8C197.354 250.4 197.12 249.067 197.12 246.8Z" fill="#4285F4"/>
<path d="M217.833 228.2V205.2L218.233 202.7H213.933V197.3H218.233L217.833 193.8V189.4C220.766 189.4 222.466 189.6 222.933 190C223.466 190.4 223.733 191.733 223.733 194L223.333 197.3H232.533C232.533 199.767 232.299 201.3 231.833 201.9C231.433 202.433 230.066 202.7 227.733 202.7H223.333L223.733 205.2V228.2C223.733 235.8 223.933 240.733 224.333 243C224.733 245.267 225.866 246.4 227.733 246.4H234.533V251L227.633 251.5C223.033 251.5 220.233 250.1 219.233 247.3C218.299 244.433 217.833 238.067 217.833 228.2Z" fill="#4285F4"/>
<path d="M239.584 271V266.3C242.718 266.3 245.151 265.2 246.884 263C248.684 260.867 249.584 258.167 249.584 254.9C249.584 253.567 246.051 234.367 238.984 197.3C241.851 197.3 243.551 197.5 244.084 197.9C244.684 198.233 245.218 199.567 245.684 201.9L252.684 244H253.984L261.284 197.3C264.484 197.3 266.184 197.6 266.384 198.2C266.518 198.4 266.584 198.767 266.584 199.3C266.584 202.7 263.351 219.933 256.884 251C256.751 251.6 256.518 252.833 256.184 254.7C255.851 256.567 255.584 257.833 255.384 258.5C255.251 259.167 254.951 260.233 254.484 261.7C254.018 263.233 253.551 264.3 253.084 264.9C252.618 265.5 251.951 266.3 251.084 267.3C250.284 268.3 249.384 269 248.384 269.4C245.584 270.467 242.651 271 239.584 271Z" fill="#4285F4"/>
</svg>
