<svg width="897" height="351" viewBox="0 0 897 351" fill="none" xmlns="http://www.w3.org/2000/svg">
<rect x="75.3909" y="64" width="55" height="55" rx="27.5" fill="#4285F4"/>
<rect x="80.2634" y="208.5" width="32" height="32" rx="16" transform="rotate(-45 80.2634 208.5)" fill="#F1C232"/>
<path d="M83.4454 189.337C72.706 178.597 72.706 161.185 83.4454 150.446C94.1849 139.706 111.597 139.706 122.336 150.446C133.076 161.185 133.076 178.597 122.336 189.337L102.891 208.782L83.4454 189.337Z" fill="#E41A86"/>
<path d="M102.891 209L122.336 228.445C133.076 239.185 133.076 256.597 122.336 267.336C111.597 278.076 94.1849 278.076 83.4454 267.336C72.706 256.597 72.706 239.185 83.4454 228.445L102.891 209Z" fill="#0097A7"/>
<path d="M188.086 230.782V117.982H201.206V230.782H188.086ZM224.064 230.782V153.022H236.704V166.302C239.264 161.395 242.89 157.715 247.584 155.262C252.277 152.808 257.557 151.582 263.424 151.582C281.877 151.582 291.104 161.822 291.104 182.302V230.782H278.144V183.102C278.144 175.848 276.704 170.568 273.824 167.262C271.05 163.848 266.57 162.142 260.384 162.142C253.237 162.142 247.53 164.382 243.264 168.862C239.104 173.235 237.024 179.102 237.024 186.462V230.782H224.064ZM315.961 230.782V163.102H300.601V153.022H315.961V150.302C315.961 139.955 318.521 132.115 323.641 126.782C328.868 121.448 336.868 118.462 347.641 117.822L353.561 117.502L354.361 127.582L347.641 127.902C341.028 128.328 336.228 130.302 333.241 133.822C330.361 137.235 328.921 142.195 328.921 148.702V153.022H376.921V230.782H363.961V163.102H328.921V230.782H315.961ZM362.521 133.662V119.102H378.361V133.662H362.521ZM397.976 230.782V153.022H410.616V166.302C413.176 161.395 416.803 157.715 421.496 155.262C426.189 152.808 431.469 151.582 437.336 151.582C455.789 151.582 465.016 161.822 465.016 182.302V230.782H452.056V183.102C452.056 175.848 450.616 170.568 447.736 167.262C444.963 163.848 440.483 162.142 434.296 162.142C427.149 162.142 421.443 164.382 417.176 168.862C413.016 173.235 410.936 179.102 410.936 186.462V230.782H397.976ZM484.114 133.662V119.102H500.114V133.662H484.114ZM485.714 230.782V153.022H498.674V230.782H485.714ZM550.901 232.222C541.728 232.222 534.848 229.822 530.261 225.022C525.674 220.115 523.381 213.075 523.381 203.902V163.102H508.181V153.022H523.381V129.182H536.341V153.022H560.981V163.102H536.341V202.622C536.341 208.702 537.621 213.342 540.181 216.542C542.741 219.635 546.901 221.182 552.661 221.182C554.368 221.182 556.074 220.968 557.781 220.542C559.488 220.115 561.034 219.688 562.421 219.262L564.661 229.182C563.274 229.928 561.248 230.622 558.581 231.262C555.914 231.902 553.354 232.222 550.901 232.222ZM582.336 259.582L595.616 229.502L562.816 153.022H576.896L602.656 216.062L628.576 153.022H642.176L595.936 259.582H582.336ZM681.137 230.782L730.897 117.982H742.097L791.857 230.782H778.257L765.777 201.982H707.057L694.737 230.782H681.137ZM736.337 133.342L711.857 190.942H761.137L736.657 133.342H736.337ZM805.38 230.782V117.982H818.5V230.782H805.38Z" fill="white" fill-opacity="0.87"/>
</svg>
