<svg width="206" height="351" viewBox="0 0 206 351" fill="none" xmlns="http://www.w3.org/2000/svg">
<rect x="75.3909" y="64" width="55" height="55" rx="27.5" fill="#4285F4"/>
<rect x="80.2634" y="208.5" width="32" height="32" rx="16" transform="rotate(-45 80.2634 208.5)" fill="#F1C232"/>
<path d="M83.4454 189.336C72.706 178.597 72.706 161.185 83.4454 150.445C94.1849 139.706 111.597 139.706 122.336 150.445C133.076 161.185 133.076 178.597 122.336 189.336L102.891 208.782L83.4454 189.336Z" fill="#E41A86"/>
<path d="M102.891 209L122.336 228.445C133.076 239.185 133.076 256.597 122.336 267.336C111.597 278.076 94.1849 278.076 83.4454 267.336C72.706 256.597 72.706 239.185 83.4454 228.445L102.891 209Z" fill="#0097A7"/>
</svg>
