<svg width="2245" height="674" viewBox="0 0 2245 674" fill="none" xmlns="http://www.w3.org/2000/svg">
<path d="M391.701 484V168.865H428.355V484H391.701Z" fill="white" fill-opacity="0.8"/>
<path d="M492.213 484V266.758H527.526V303.859C534.678 290.151 544.81 279.87 557.922 273.016C571.034 266.162 585.785 262.735 602.175 262.735C653.729 262.735 679.506 291.343 679.506 348.559V484H643.299V350.794C643.299 330.53 639.276 315.779 631.23 306.541C623.482 297.005 610.966 292.237 593.682 292.237C573.716 292.237 557.773 298.495 545.853 311.011C534.231 323.229 528.42 339.619 528.42 360.181V484H492.213Z" fill="white" fill-opacity="0.8"/>
<path d="M748.952 484V294.919H706.04V266.758H748.952V259.159C748.952 230.253 756.104 208.35 770.408 193.45C785.01 178.55 807.36 170.206 837.458 168.418L853.997 167.524L856.232 195.685L837.458 196.579C818.982 197.771 805.572 203.284 797.228 213.118C789.182 222.654 785.159 236.511 785.159 254.689V266.758H919.259V484H883.052V294.919H785.159V484H748.952ZM879.029 212.671V171.994H923.282V212.671H879.029Z" fill="white" fill-opacity="0.8"/>
<path d="M978.081 484V266.758H1013.39V303.859C1020.55 290.151 1030.68 279.87 1043.79 273.016C1056.9 266.162 1071.65 262.735 1088.04 262.735C1139.6 262.735 1165.37 291.343 1165.37 348.559V484H1129.17V350.794C1129.17 330.53 1125.14 315.779 1117.1 306.541C1109.35 297.005 1096.83 292.237 1079.55 292.237C1059.58 292.237 1043.64 298.495 1031.72 311.011C1020.1 323.229 1014.29 339.619 1014.29 360.181V484H978.081Z" fill="white" fill-opacity="0.8"/>
<path d="M1218.73 212.671V171.994H1263.43V212.671H1218.73ZM1223.2 484V266.758H1259.41V484H1223.2Z" fill="white" fill-opacity="0.8"/>
<path d="M1405.32 488.023C1379.69 488.023 1360.47 481.318 1347.65 467.908C1334.84 454.2 1328.43 434.532 1328.43 408.904V294.919H1285.97V266.758H1328.43V200.155H1364.64V266.758H1433.48V294.919H1364.64V405.328C1364.64 422.314 1368.21 435.277 1375.37 444.217C1382.52 452.859 1394.14 457.18 1410.23 457.18C1415 457.18 1419.77 456.584 1424.54 455.392C1429.3 454.2 1433.63 453.008 1437.5 451.816L1443.76 479.53C1439.88 481.616 1434.22 483.553 1426.77 485.341C1419.32 487.129 1412.17 488.023 1405.32 488.023Z" fill="white" fill-opacity="0.8"/>
<path d="M1493.14 564.46L1530.24 480.424L1438.6 266.758H1477.94L1549.91 442.876L1622.32 266.758H1660.32L1531.13 564.46H1493.14Z" fill="white" fill-opacity="0.8"/>
<path d="M1769.16 484L1908.18 168.865H1939.47L2078.49 484H2040.49L2005.63 403.54H1841.58L1807.16 484H1769.16ZM1923.38 211.777L1854.99 372.697H1992.66L1924.27 211.777H1923.38Z" fill="white" fill-opacity="0.8"/>
<path d="M2116.27 484V168.865H2152.92V484H2116.27Z" fill="white" fill-opacity="0.8"/>
<g clip-path="url(#clip0_214_785)">
<path d="M192 160.059C192 124.68 163.346 96 128 96C92.6538 96 64 124.68 64 160.059C64 195.438 92.6538 224.118 128 224.118C163.346 224.118 192 195.438 192 160.059Z" fill="#337DEC"/>
<path fill-rule="evenodd" clip-rule="evenodd" d="M82.7451 306.544C57.7516 331.632 57.7516 372.306 82.7451 397.393L112.98 427.741C116.093 430.866 116.089 435.922 112.971 439.042L82.7451 469.295C57.7516 494.313 57.7516 534.873 82.7451 559.889C107.739 584.907 148.261 584.907 173.255 559.889C198.248 534.873 198.248 494.313 173.255 469.295L143.029 439.042C139.911 435.922 139.907 430.866 143.021 427.741L173.255 397.393C198.248 372.306 198.248 331.632 173.255 306.544C148.261 281.457 107.739 281.457 82.7451 306.544Z" fill="url(#paint0_linear_214_785)"/>
</g>
<defs>
<linearGradient id="paint0_linear_214_785" x1="127.812" y1="288" x2="127.642" y2="579" gradientUnits="userSpaceOnUse">
<stop offset="0.307292" stop-color="#E41A86"/>
<stop offset="0.5" stop-color="#F1C232"/>
<stop offset="0.703125" stop-color="#0097A7"/>
</linearGradient>
<clipPath id="clip0_214_785">
<rect width="128" height="483" fill="white" transform="translate(64 96)"/>
</clipPath>
</defs>
</svg>
