<?xml version="1.0" encoding="iso-8859-1"?>
<!-- Generator: Adobe Illustrator 18.0.0, SVG Export Plug-In . SVG Version: 6.00 Build 0)  -->
<!DOCTYPE svg PUBLIC "-//W3C//DTD SVG 1.1//EN" "http://www.w3.org/Graphics/SVG/1.1/DTD/svg11.dtd">
<svg version="1.1" id="Capa_1" xmlns="http://www.w3.org/2000/svg" xmlns:xlink="http://www.w3.org/1999/xlink" x="0px" y="0px"
	 viewBox="0 0 460.601 460.601" style="enable-background:new 0 0 460.601 460.601;" xml:space="preserve">
<g id="XMLID_503_">
	<circle id="XMLID_510_" cx="230.301" cy="39.067" r="39.067"/>
	<path id="XMLID_794_" d="M444.022,115.692c-3.564-4.611-8.933-6.986-14.343-6.94l-2.74-3.545c3.105-4.54,4.021-10.47,1.922-16.002
		c-3.374-8.892-13.251-13.396-22.161-10.181l-7.513-9.719c1.408-5.224,0.462-11.018-3.102-15.63
		c-6.052-7.83-17.306-9.271-25.136-3.218c-7.83,6.052-9.271,17.306-3.218,25.135c3.564,4.611,8.933,6.986,14.343,6.94l3.479,4.501
		l-36.602,13.889l-68.727-5.406v-0.14c-32.947,0-66.367,0-99.845,0v0.14l-68.727,5.406L75.297,87.128l3.232-4.181
		c5.41,0.046,10.779-2.329,14.343-6.94c6.052-7.83,4.611-19.083-3.218-25.136c-7.83-6.052-19.083-4.611-25.135,3.219
		c-3.565,4.611-4.51,10.405-3.102,15.629l-7.257,9.388c-8.977-3.394-19.011,1.122-22.417,10.098
		c-2.134,5.622-1.161,11.66,2.068,16.227l-2.886,3.733c-5.411-0.046-10.779,2.329-14.343,6.94
		c-6.052,7.83-4.611,19.083,3.218,25.136c7.83,6.052,19.083,4.611,25.135-3.219c3.564-4.611,4.51-10.404,3.103-15.628l5.02-6.494
		l49.898,18.936c2.396,0.91,4.971,1.281,7.536,1.078l69.888-5.497v119.01l-43.122,183.371c-2.859,12.161,4.68,24.338,16.841,27.197
		c12.156,2.86,24.337-4.676,27.197-16.841l43.736-185.982h10.539l43.736,185.982c2.862,12.168,15.046,19.701,27.198,16.841
		c12.161-2.859,19.701-15.036,16.841-27.197l-43.122-183.37V130.417l69.888,5.497c2.565,0.203,5.14-0.169,7.536-1.078l50.146-19.03
		l4.772,6.173c-1.408,5.225-0.462,11.018,3.102,15.63c6.052,7.83,17.306,9.271,25.135,3.218
		C448.633,134.775,450.074,123.521,444.022,115.692z"/>
</g>
<g>
</g>
<g>
</g>
<g>
</g>
<g>
</g>
<g>
</g>
<g>
</g>
<g>
</g>
<g>
</g>
<g>
</g>
<g>
</g>
<g>
</g>
<g>
</g>
<g>
</g>
<g>
</g>
<g>
</g>
</svg>
